<?xml version="1.0" standalone="no"?>
<!DOCTYPE svg PUBLIC "-//W3C//DTD SVG 20010904//EN"
 "http://www.w3.org/TR/2001/REC-SVG-20010904/DTD/svg10.dtd">
<svg version="1.0" xmlns="http://www.w3.org/2000/svg"
 width="325.000000pt" height="325.000000pt" viewBox="0 0 325.000000 325.000000"
 preserveAspectRatio="xMidYMid meet">
<metadata>
Created by potrace 1.11, written by Peter Selinger 2001-2013
</metadata>
<g transform="translate(0.000000,325.000000) scale(0.100000,-0.100000)"
fill="#000000" stroke="none">
<path d="M1836 2410 c-74 -13 -142 -37 -231 -82 -104 -52 -146 -79 -345 -221
-91 -64 -172 -122 -180 -127 -8 -6 -42 -29 -75 -51 -84 -57 -227 -126 -310
-149 -40 -12 -100 -20 -142 -20 -49 0 -73 -4 -73 -12 0 -10 56 -105 70 -118 3
-3 20 -23 39 -45 45 -52 134 -121 176 -136 19 -7 32 -16 30 -20 -3 -4 1 -6 8
-6 6 1 44 -5 84 -12 68 -13 274 -11 373 4 l35 6 -40 -15 c-22 -9 -72 -23 -111
-31 -45 -10 -71 -21 -71 -30 0 -7 5 -11 11 -9 16 6 168 -125 160 -138 -4 -6
-3 -8 3 -5 6 4 35 -17 65 -46 30 -29 72 -68 94 -86 21 -19 38 -40 36 -45 -2
-6 -1 -8 3 -4 4 4 35 -13 68 -36 154 -107 284 -142 487 -133 318 14 584 196
699 479 182 445 -58 937 -521 1068 -83 24 -264 34 -342 20z m251 -126 c181
-37 356 -165 445 -325 62 -111 83 -196 82 -334 -2 -124 -15 -200 -28 -160 -19
55 -63 129 -87 148 -16 11 -26 24 -23 29 3 5 2 7 -3 6 -4 -1 -35 8 -68 21 -48
18 -76 22 -138 20 -65 -3 -80 -1 -88 13 -8 14 -2 19 33 29 24 7 73 13 110 14
72 1 89 10 108 54 9 22 9 35 0 50 -13 25 -30 26 -90 5 -32 -11 -61 -14 -102
-9 -57 7 -58 8 -98 66 -22 32 -40 69 -40 81 0 17 3 19 12 10 29 -29 85 7 112
73 22 53 20 63 -16 85 -36 22 -68 19 -110 -11 -21 -15 -32 -17 -53 -9 -88 34
-299 -22 -413 -108 -42 -32 -92 -101 -92 -127 0 -11 13 -35 29 -52 16 -18 26
-34 23 -37 -3 -3 0 -6 7 -6 7 0 36 -19 64 -42 29 -24 54 -44 56 -46 3 -1 -6
-10 -20 -19 -13 -10 -39 -32 -58 -49 l-35 -31 -50 25 c-66 33 -172 35 -232 4
l-41 -21 4 52 c11 144 79 298 177 401 107 112 225 175 391 210 47 9 162 5 232
-10z m-87 -399 c61 -61 92 -85 110 -85 21 -1 22 -2 8 -10 -9 -6 -63 -13 -120
-16 l-103 -6 -35 34 c-19 18 -61 55 -92 82 -32 27 -58 52 -58 56 0 16 56 28
130 29 l75 1 85 -85z m121 -212 c6 -16 0 -26 -34 -50 -88 -62 -131 -213 -91
-322 15 -44 84 -146 84 -126 0 5 8 1 18 -8 40 -37 105 -57 187 -57 l80 0 -30
-24 c-94 -76 -236 -120 -385 -121 -126 0 -216 24 -328 88 -73 41 -74 42 -50
56 12 8 46 38 74 66 37 37 54 64 64 100 7 28 26 68 42 90 158 218 217 293 223
287 5 -4 5 -1 1 6 -17 29 1 38 70 37 58 -1 68 -4 75 -22z m-341 -16 c0 -1 -9
-27 -21 -57 -12 -30 -27 -70 -34 -89 l-13 -35 -21 40 c-12 21 -27 47 -34 57
-10 15 -8 21 13 37 42 32 110 62 110 47z m598 -61 c43 -22 90 -73 113 -121 66
-141 -49 -325 -204 -325 -97 0 -203 73 -226 155 -38 139 26 263 159 306 36 12
122 3 158 -15z m-866 -15 c116 -49 171 -202 117 -321 -33 -73 -102 -131 -133
-113 -33 19 -111 125 -146 198 -37 79 -67 196 -55 215 24 39 148 51 217 21z"/>
<path d="M795 2073 c-56 -13 -147 -52 -313 -136 -140 -70 -193 -92 -225 -92
-59 -1 -60 -14 -2 -38 39 -16 80 -21 180 -25 162 -5 262 16 414 88 57 28 108
47 114 43 6 -3 7 -1 3 5 -6 11 50 48 67 44 4 -1 7 4 7 12 0 23 -46 72 -84 90
-32 15 -114 20 -161 9z"/>
</g>
</svg>
